<svg width="154" height="33" viewBox="0 0 154 33" fill="none" xmlns="http://www.w3.org/2000/svg">
<path d="M0 16.3158C0 25.3268 7.30482 32.6316 16.3158 32.6316C20.1492 32.6316 23.6739 31.3095 26.4587 29.0965H14.736C14.5931 29.0965 14.4561 29.0399 14.355 28.9392C14.254 28.8385 14.1972 28.7019 14.1972 28.5595V12.1642L13.3386 12.718C13.2519 12.7755 13.1499 12.8059 13.0457 12.8052C12.9298 12.8049 12.817 12.7673 12.7242 12.698C12.6314 12.6287 12.5635 12.5314 12.5306 12.4206C12.4977 12.3098 12.5015 12.1913 12.5416 12.0828C12.5816 11.9743 12.6557 11.8816 12.7528 11.8185L24.4296 4.27361C24.517 4.21774 24.6186 4.18805 24.7225 4.18805C24.8263 4.18805 24.928 4.21774 25.0154 4.27361L27.2713 5.72016V4.61595C27.2713 4.50655 27.3048 4.40059 27.3661 4.3117C24.4597 1.63482 20.5787 0 16.3158 0C7.30482 0 0 7.30483 0 16.3158Z" fill="#0EA5E9"/>
<path d="M28.8859 21.0739C28.4891 22.0269 27.7953 22.8282 26.9064 23.3594C26.0171 23.8908 24.9798 24.1237 23.9473 24.0234C22.9148 23.9231 21.9423 23.4951 21.173 22.8027C20.4037 22.1103 19.8784 21.1904 19.674 20.1786C19.4696 19.1668 19.597 18.1163 20.0373 17.1819C20.4777 16.2475 21.208 15.4783 22.1209 14.9882C23.0338 14.498 24.0809 14.3129 25.1076 14.4604C26.1339 14.6078 27.0853 15.0796 27.8216 15.8059C28.5005 16.4822 28.9635 17.343 29.1528 18.2801C29.342 19.2172 29.2492 20.1891 28.8859 21.0739Z" fill="#0EA5E9" stroke="#0EA5E9" stroke-width="1.08772"/>
<path d="M41.9755 10.4028H47.5687C48.9588 10.4028 50.0804 10.8204 50.9336 11.6557C51.7927 12.4849 52.2222 13.5917 52.2222 14.9758C52.2222 16.348 51.7748 17.4517 50.8799 18.287C49.985 19.1163 48.8156 19.5309 47.3718 19.5309H45.2598V23.3164H41.9755V10.4028ZM45.2598 12.9175V17.0609H46.6827C47.3867 17.0609 47.9326 16.882 48.3204 16.524C48.7082 16.166 48.9021 15.6529 48.9021 14.9847C48.9021 14.3165 48.7082 13.8064 48.3204 13.4544C47.9386 13.0965 47.3986 12.9175 46.7006 12.9175H45.2598ZM53.4662 23.3164V13.5708H56.5536V15.4143H56.6163C56.9742 14.0898 57.7379 13.4276 58.9073 13.4276C59.2235 13.4276 59.4919 13.4694 59.7127 13.5529V16.2555C59.4144 16.1362 59.0773 16.0765 58.7014 16.0765C58.0332 16.0765 57.5231 16.2585 57.1711 16.6224C56.8191 16.9864 56.6431 17.5084 56.6431 18.1885V23.3164H53.4662ZM68.7692 22.2067C67.8803 23.1016 66.6632 23.5491 65.118 23.5491C63.5728 23.5491 62.3557 23.1016 61.4667 22.2067C60.5778 21.3058 60.1333 20.05 60.1333 18.4391C60.1333 16.8581 60.5837 15.6142 61.4846 14.7073C62.3855 13.7945 63.5966 13.3381 65.118 13.3381C66.6513 13.3381 67.8654 13.7915 68.7603 14.6984C69.6552 15.6052 70.1027 16.8521 70.1027 18.4391C70.1027 20.0559 69.6582 21.3118 68.7692 22.2067ZM63.8203 20.4974C64.1365 20.9807 64.5691 21.2223 65.118 21.2223C65.6669 21.2223 66.0994 20.9807 66.4156 20.4974C66.7318 20.0142 66.8899 19.331 66.8899 18.4481C66.8899 17.577 66.7288 16.8969 66.4067 16.4077C66.0904 15.9125 65.6609 15.6649 65.118 15.6649C64.5751 15.6649 64.1455 15.9125 63.8293 16.4077C63.5131 16.8969 63.355 17.577 63.355 18.4481C63.355 19.331 63.5101 20.0142 63.8203 20.4974ZM77.5036 13.4276C78.7326 13.4276 79.6872 13.8661 80.3673 14.7431C81.0534 15.6201 81.3965 16.8551 81.3965 18.4481C81.3965 20.035 81.0594 21.267 80.3852 22.1441C79.7111 23.0211 78.7654 23.4596 77.5483 23.4596C76.8384 23.4596 76.2239 23.3015 75.7048 22.9853C75.1858 22.6631 74.8069 22.2186 74.5683 21.6519H74.5056V26.4665H71.3287V13.5708H74.4877V15.3069H74.5504C74.801 14.7163 75.1798 14.2569 75.6869 13.9287C76.2 13.5946 76.8056 13.4276 77.5036 13.4276ZM74.9889 20.3005C75.317 20.754 75.7615 20.9807 76.3223 20.9807C76.8831 20.9807 77.3276 20.754 77.6557 20.3005C77.9898 19.8412 78.1569 19.2237 78.1569 18.4481C78.1569 17.6725 77.9898 17.055 77.6557 16.5956C77.3276 16.1362 76.8831 15.9065 76.3223 15.9065C75.7675 15.9065 75.323 16.1392 74.9889 16.6045C74.6608 17.0639 74.4937 17.6784 74.4877 18.4481C74.4937 19.2237 74.6608 19.8412 74.9889 20.3005ZM87.2492 15.5933C86.766 15.5933 86.3573 15.7574 86.0232 16.0855C85.6951 16.4077 85.5101 16.8223 85.4684 17.3294H89.0122C88.9824 16.8104 88.8064 16.3927 88.4842 16.0765C88.162 15.7544 87.7504 15.5933 87.2492 15.5933ZM89.0838 20.2379H91.9475C91.7924 21.2462 91.2972 22.0516 90.462 22.6542C89.6267 23.2508 88.5737 23.5491 87.3029 23.5491C85.7517 23.5491 84.5376 23.1016 83.6606 22.2067C82.7836 21.3058 82.3451 20.0679 82.3451 18.4928C82.3451 16.9178 82.7806 15.6649 83.6517 14.7342C84.5287 13.8035 85.71 13.3381 87.1955 13.3381C88.6632 13.3381 89.8296 13.7826 90.6947 14.6715C91.5657 15.5605 92.0012 16.7507 92.0012 18.2422V19.1372H85.4236V19.334C85.4236 19.9187 85.5996 20.393 85.9516 20.7569C86.3096 21.1209 86.7749 21.3028 87.3477 21.3028C87.7713 21.3028 88.1382 21.2074 88.4484 21.0165C88.7587 20.8256 88.9705 20.566 89.0838 20.2379ZM93.2362 23.3164V13.5708H96.3237V15.4143H96.3863C96.7443 14.0898 97.5079 13.4276 98.6773 13.4276C98.9935 13.4276 99.262 13.4694 99.4827 13.5529V16.2555C99.1844 16.1362 98.8473 16.0765 98.4715 16.0765C97.8033 16.0765 97.2932 16.2585 96.9412 16.6224C96.5892 16.9864 96.4132 17.5084 96.4132 18.1885V23.3164H93.2362ZM101.246 11.3872H104.423V13.5708H106.177V15.9065H104.423V19.9963C104.423 20.6704 104.796 21.0075 105.541 21.0075C105.804 21.0075 106.013 20.9926 106.168 20.9628V23.218C105.792 23.2955 105.33 23.3343 104.781 23.3343C103.516 23.3343 102.609 23.1255 102.06 22.7079C101.517 22.2902 101.246 21.6012 101.246 20.6406V15.9065H99.9212V13.5708H101.246V11.3872ZM108.951 26.905C108.211 26.905 107.826 26.902 107.796 26.8961V24.4977C107.856 24.5096 108.086 24.5156 108.486 24.5156C108.987 24.5156 109.36 24.447 109.604 24.3098C109.849 24.1785 109.992 23.9667 110.034 23.6744L110.052 23.5133C110.058 23.4059 110.058 23.3403 110.052 23.3164L106.767 13.5708H110.266L112.029 20.9359H112.083L113.837 13.5708H117.184L114.07 23.2896C113.652 24.5961 113.053 25.5239 112.271 26.0727C111.49 26.6276 110.383 26.905 108.951 26.905ZM126.831 20.6675V23.3164H118.204V10.4028H121.489V20.6675H126.831ZM128.147 23.3164V13.5708H131.315V23.3164H128.147ZM130.885 12.3358C130.575 12.6341 130.19 12.7833 129.731 12.7833C129.271 12.7833 128.884 12.6341 128.567 12.3358C128.257 12.0375 128.102 11.6676 128.102 11.2261C128.102 10.7906 128.257 10.4237 128.567 10.1254C128.884 9.82705 129.271 9.67789 129.731 9.67789C130.19 9.67789 130.575 9.82705 130.885 10.1254C131.196 10.4177 131.351 10.7846 131.351 11.2261C131.351 11.6676 131.196 12.0375 130.885 12.3358ZM132.863 23.3164V13.5708H135.951V15.4054H136.013C136.264 14.7491 136.643 14.2479 137.15 13.9019C137.663 13.5559 138.289 13.3828 139.029 13.3828C140.109 13.3828 140.941 13.705 141.526 14.3494C142.117 14.9937 142.412 15.8976 142.412 17.0609V23.3164H139.244V17.7411C139.244 17.1803 139.11 16.7447 138.841 16.4345C138.579 16.1243 138.191 15.9692 137.678 15.9692C137.177 15.9692 136.777 16.1392 136.479 16.4793C136.186 16.8193 136.04 17.2608 136.04 17.8037V23.3164H132.863ZM147.191 17.2757L149.992 13.5708H153.527L150.063 17.7411L153.733 23.3164H150.081L147.71 19.6383L147.137 20.3274V23.3164H143.96V10.4028H147.137V17.2757H147.191Z" fill="#0EA5E9"/>
</svg>
