<svg width="113" height="87" viewBox="0 0 113 87" fill="none" xmlns="http://www.w3.org/2000/svg">
<path d="M28 30C28 46.5685 41.4314 60 58 60C65.0486 60 71.5295 57.5691 76.65 53.5H55.0951C54.8324 53.5 54.5805 53.396 54.3947 53.2108C54.209 53.0256 54.1046 52.7745 54.1046 52.5126V22.3664L52.5259 23.3846C52.3664 23.4905 52.1789 23.5464 51.9873 23.5451C51.7741 23.5445 51.5668 23.4754 51.3961 23.348C51.2255 23.2206 51.1006 23.0417 51.0401 22.8379C50.9796 22.6341 50.9867 22.4163 51.0603 22.2168C51.1339 22.0173 51.2701 21.8469 51.4487 21.7307L72.9189 7.85793C73.0796 7.75521 73.2665 7.70061 73.4575 7.70061C73.6484 7.70061 73.8353 7.75521 73.9961 7.85793L78.144 10.5177V8.48739C78.144 8.28624 78.2056 8.09141 78.3183 7.92796C72.9742 3.00595 65.8382 0 58 0C41.4314 0 28 13.4315 28 30Z" fill="#0EA5E9"/>
<path d="M81.1128 38.7507C80.3832 40.5032 79.1075 41.9766 77.473 42.9534C75.8378 43.9306 73.9304 44.3587 72.032 44.1743C70.1336 43.99 68.3453 43.2029 66.9308 41.9298C65.5164 40.6567 64.5504 38.9652 64.1747 37.1048C63.7989 35.2444 64.033 33.3129 64.8427 31.5949C65.6524 29.8767 66.9952 28.4624 68.6738 27.5612C70.3524 26.6599 72.2776 26.3196 74.1655 26.5907C76.0527 26.8618 77.8021 27.7295 79.1561 29.0651C80.4042 30.3086 81.2554 31.8912 81.6033 33.6141C81.9513 35.3369 81.7807 37.1239 81.1128 38.7507Z" fill="#0EA5E9" stroke="#0EA5E9" stroke-width="2"/>
<path d="M0.975458 70.0864H6.56868C7.95878 70.0864 9.08041 70.504 9.93356 71.3393C10.7927 72.1685 11.2222 73.2753 11.2222 74.6594C11.2222 76.0316 10.7748 77.1353 9.87987 77.9706C8.98495 78.7999 7.8156 79.2145 6.3718 79.2145H4.2598V83H0.975458V70.0864ZM4.2598 72.6011V76.7445H5.68271C6.38671 76.7445 6.93261 76.5656 7.32041 76.2076C7.70821 75.8496 7.9021 75.3365 7.9021 74.6683C7.9021 74.0001 7.70821 73.49 7.32041 73.138C6.93858 72.7801 6.39865 72.6011 5.70061 72.6011H4.2598ZM12.4662 83V73.2544H15.5536V75.0979H15.6163C15.9742 73.7734 16.7379 73.1112 17.9073 73.1112C18.2235 73.1112 18.4919 73.1529 18.7127 73.2365V75.9391C18.4144 75.8198 18.0773 75.7601 17.7014 75.7601C17.0332 75.7601 16.5231 75.9421 16.1711 76.306C15.8191 76.67 15.6431 77.192 15.6431 77.8721V83H12.4662ZM27.7692 81.8903C26.8803 82.7852 25.6632 83.2327 24.118 83.2327C22.5728 83.2327 21.3557 82.7852 20.4667 81.8903C19.5778 80.9894 19.1333 79.7336 19.1333 78.1227C19.1333 76.5417 19.5837 75.2978 20.4846 74.3909C21.3855 73.4781 22.5966 73.0217 24.118 73.0217C25.6513 73.0217 26.8654 73.4751 27.7603 74.382C28.6552 75.2888 29.1027 76.5357 29.1027 78.1227C29.1027 79.7395 28.6582 80.9954 27.7692 81.8903ZM22.8203 80.181C23.1365 80.6643 23.5691 80.9059 24.118 80.9059C24.6669 80.9059 25.0994 80.6643 25.4156 80.181C25.7318 79.6978 25.8899 79.0146 25.8899 78.1317C25.8899 77.2606 25.7288 76.5805 25.4067 76.0913C25.0904 75.5961 24.6609 75.3485 24.118 75.3485C23.5751 75.3485 23.1455 75.5961 22.8293 76.0913C22.5131 76.5805 22.355 77.2606 22.355 78.1317C22.355 79.0146 22.5101 79.6978 22.8203 80.181ZM36.5036 73.1112C37.7326 73.1112 38.6872 73.5497 39.3673 74.4267C40.0534 75.3037 40.3965 76.5387 40.3965 78.1317C40.3965 79.7186 40.0594 80.9506 39.3852 81.8277C38.7111 82.7047 37.7654 83.1432 36.5483 83.1432C35.8384 83.1432 35.2239 82.9851 34.7048 82.6689C34.1858 82.3467 33.8069 81.9022 33.5683 81.3355H33.5056V86.1501H30.3287V73.2544H33.4877V74.9905H33.5504C33.801 74.3999 34.1798 73.9405 34.6869 73.6123C35.2 73.2782 35.8056 73.1112 36.5036 73.1112ZM33.9889 79.9841C34.317 80.4376 34.7615 80.6643 35.3223 80.6643C35.8831 80.6643 36.3276 80.4376 36.6557 79.9841C36.9898 79.5247 37.1569 78.9073 37.1569 78.1317C37.1569 77.3561 36.9898 76.7386 36.6557 76.2792C36.3276 75.8198 35.8831 75.5901 35.3223 75.5901C34.7675 75.5901 34.323 75.8228 33.9889 76.2881C33.6608 76.7475 33.4937 77.362 33.4877 78.1317C33.4937 78.9073 33.6608 79.5247 33.9889 79.9841ZM46.2492 75.2769C45.766 75.2769 45.3573 75.4409 45.0232 75.7691C44.6951 76.0913 44.5101 76.5059 44.4684 77.013H48.0122C47.9824 76.494 47.8064 76.0763 47.4842 75.7601C47.162 75.438 46.7504 75.2769 46.2492 75.2769ZM48.0838 79.9215H50.9475C50.7924 80.9298 50.2972 81.7352 49.462 82.3378C48.6267 82.9344 47.5737 83.2327 46.3029 83.2327C44.7517 83.2327 43.5376 82.7852 42.6606 81.8903C41.7836 80.9894 41.3451 79.7515 41.3451 78.1764C41.3451 76.6014 41.7806 75.3485 42.6517 74.4178C43.5287 73.487 44.71 73.0217 46.1955 73.0217C47.6632 73.0217 48.8296 73.4662 49.6947 74.3551C50.5657 75.2441 51.0012 76.4343 51.0012 77.9258V78.8207H44.4236V79.0176C44.4236 79.6023 44.5996 80.0766 44.9516 80.4405C45.3096 80.8045 45.7749 80.9864 46.3477 80.9864C46.7713 80.9864 47.1382 80.891 47.4484 80.7001C47.7587 80.5092 47.9705 80.2496 48.0838 79.9215ZM52.2362 83V73.2544H55.3237V75.0979H55.3863C55.7443 73.7734 56.5079 73.1112 57.6773 73.1112C57.9935 73.1112 58.262 73.1529 58.4827 73.2365V75.9391C58.1844 75.8198 57.8473 75.7601 57.4715 75.7601C56.8033 75.7601 56.2932 75.9421 55.9412 76.306C55.5892 76.67 55.4132 77.192 55.4132 77.8721V83H52.2362ZM60.2457 71.0708H63.4227V73.2544H65.1767V75.5901H63.4227V79.6799C63.4227 80.354 63.7955 80.6911 64.5413 80.6911C64.8038 80.6911 65.0126 80.6762 65.1677 80.6464V82.9016C64.7919 82.9791 64.3295 83.0179 63.7806 83.0179C62.5158 83.0179 61.609 82.8091 61.0601 82.3915C60.5172 81.9738 60.2457 81.2847 60.2457 80.3242V75.5901H58.9212V73.2544H60.2457V71.0708ZM67.9509 86.5886C67.2111 86.5886 66.8263 86.5856 66.7965 86.5797V84.1813C66.8562 84.1932 67.0858 84.1992 67.4856 84.1992C67.9867 84.1992 68.3596 84.1306 68.6042 83.9934C68.8488 83.8621 68.992 83.6503 69.0338 83.358L69.0517 83.1969C69.0576 83.0895 69.0576 83.0239 69.0517 83L65.7673 73.2544H69.2665L71.0294 80.6195H71.0831L72.8372 73.2544H76.1842L73.0699 82.9732C72.6522 84.2797 72.0526 85.2075 71.2711 85.7563C70.4895 86.3112 69.3828 86.5886 67.9509 86.5886ZM85.8313 80.3511V83H77.2044V70.0864H80.4887V80.3511H85.8313ZM87.1469 83V73.2544H90.3149V83H87.1469ZM89.8853 72.0194C89.5751 72.3177 89.1903 72.4668 88.7309 72.4668C88.2715 72.4668 87.8837 72.3177 87.5675 72.0194C87.2572 71.7211 87.1021 71.3512 87.1021 70.9097C87.1021 70.4742 87.2572 70.1073 87.5675 69.8089C87.8837 69.5106 88.2715 69.3615 88.7309 69.3615C89.1903 69.3615 89.5751 69.5106 89.8853 69.8089C90.1955 70.1013 90.3507 70.4682 90.3507 70.9097C90.3507 71.3512 90.1955 71.7211 89.8853 72.0194ZM91.8631 83V73.2544H94.9505V75.0889H95.0132C95.2638 74.4327 95.6426 73.9315 96.1497 73.5855C96.6628 73.2395 97.2893 73.0664 98.029 73.0664C99.1089 73.0664 99.9412 73.3886 100.526 74.0329C101.117 74.6773 101.412 75.5812 101.412 76.7445V83H98.2438V77.4247C98.2438 76.8639 98.1096 76.4283 97.8411 76.1181C97.5786 75.8079 97.1908 75.6527 96.6777 75.6527C96.1766 75.6527 95.7768 75.8228 95.4785 76.1628C95.1862 76.5029 95.04 76.9444 95.04 77.4873V83H91.8631ZM106.191 76.9593L108.992 73.2544H112.527L109.063 77.4247L112.733 83H109.081L106.71 79.3219L106.137 80.011V83H102.96V70.0864H106.137V76.9593H106.191Z" fill="#0EA5E9"/>
</svg>
