<svg width="31" height="33" viewBox="0 0 31 33" fill="none" xmlns="http://www.w3.org/2000/svg">
<path d="M0 16.3158C0 25.3268 7.30482 32.6316 16.3158 32.6316C20.1492 32.6316 23.6739 31.3095 26.4587 29.0965H14.736C14.5931 29.0965 14.4561 29.0399 14.355 28.9392C14.254 28.8385 14.1972 28.7019 14.1972 28.5595V12.1642L13.3386 12.718C13.2519 12.7755 13.1499 12.8059 13.0457 12.8052C12.9298 12.8049 12.817 12.7673 12.7242 12.698C12.6314 12.6287 12.5635 12.5314 12.5306 12.4206C12.4977 12.3098 12.5015 12.1913 12.5416 12.0828C12.5816 11.9743 12.6557 11.8816 12.7528 11.8185L24.4296 4.27361C24.517 4.21774 24.6186 4.18805 24.7225 4.18805C24.8263 4.18805 24.928 4.21774 25.0154 4.27361L27.2713 5.72016V4.61595C27.2713 4.50655 27.3048 4.40059 27.3661 4.3117C24.4597 1.63482 20.5787 0 16.3158 0C7.30482 0 0 7.30483 0 16.3158Z" fill="#0EA5E9"/>
<path d="M28.8859 21.0739C28.4891 22.0269 27.7953 22.8282 26.9064 23.3594C26.0171 23.8908 24.9798 24.1237 23.9473 24.0234C22.9148 23.9231 21.9423 23.4951 21.173 22.8027C20.4037 22.1103 19.8784 21.1904 19.674 20.1786C19.4696 19.1668 19.597 18.1163 20.0373 17.1819C20.4777 16.2475 21.208 15.4783 22.1209 14.9882C23.0338 14.498 24.0809 14.3129 25.1076 14.4604C26.1339 14.6078 27.0853 15.0796 27.8216 15.8059C28.5005 16.4822 28.9635 17.343 29.1528 18.2801C29.342 19.2172 29.2492 20.1891 28.8859 21.0739Z" fill="#0EA5E9" stroke="#0EA5E9" stroke-width="1.08772"/>
</svg>
